<svg xmlns="http://www.w3.org/2000/svg" viewBox="0 0 32 32" shape-rendering="crispEdges"><rect x="0" y="0" width="32" height="1" fill="#1a1b3a"/><rect x="0" y="1" width="1" height="1" fill="#1a1b3a"/><rect x="1" y="1" width="28" height="1" fill="#ffe78c"/><rect x="29" y="1" width="2" height="1" fill="#c98a16"/><rect x="31" y="1" width="1" height="1" fill="#1a1b3a"/><rect x="0" y="2" width="1" height="1" fill="#1a1b3a"/><rect x="1" y="2" width="28" height="1" fill="#ffe78c"/><rect x="29" y="2" width="2" height="1" fill="#c98a16"/><rect x="31" y="2" width="1" height="1" fill="#1a1b3a"/><rect x="0" y="3" width="1" height="1" fill="#1a1b3a"/><rect x="1" y="3" width="2" height="1" fill="#ffe78c"/><rect x="3" y="3" width="26" height="1" fill="#ffc93c"/><rect x="29" y="3" width="2" height="1" fill="#c98a16"/><rect x="31" y="3" width="1" height="1" fill="#1a1b3a"/><rect x="0" y="4" width="1" height="1" fill="#1a1b3a"/><rect x="1" y="4" width="2" height="1" fill="#ffe78c"/><rect x="3" y="4" width="1" height="1" fill="#ffc93c"/><rect x="4" y="4" width="1" height="1" fill="#c98a16"/><rect x="5" y="4" width="22" height="1" fill="#ffc93c"/><rect x="27" y="4" width="1" height="1" fill="#c98a16"/><rect x="28" y="4" width="1" height="1" fill="#ffc93c"/><rect x="29" y="4" width="2" height="1" fill="#c98a16"/><rect x="31" y="4" width="1" height="1" fill="#1a1b3a"/><rect x="0" y="5" width="1" height="1" fill="#1a1b3a"/><rect x="1" y="5" width="2" height="1" fill="#ffe78c"/><rect x="3" y="5" width="26" height="1" fill="#ffc93c"/><rect x="29" y="5" width="2" height="1" fill="#c98a16"/><rect x="31" y="5" width="1" height="1" fill="#1a1b3a"/><rect x="0" y="6" width="1" height="1" fill="#1a1b3a"/><rect x="1" y="6" width="2" height="1" fill="#ffe78c"/><rect x="3" y="6" width="26" height="1" fill="#ffc93c"/><rect x="29" y="6" width="2" height="1" fill="#c98a16"/><rect x="31" y="6" width="1" height="1" fill="#1a1b3a"/><rect x="0" y="7" width="1" height="1" fill="#1a1b3a"/><rect x="1" y="7" width="2" height="1" fill="#ffe78c"/><rect x="3" y="7" width="1" height="1" fill="#ffc93c"/><rect x="4" y="7" width="5" height="1" fill="#1a1b3a"/><rect x="9" y="7" width="14" height="1" fill="#ffc93c"/><rect x="23" y="7" width="5" height="1" fill="#1a1b3a"/><rect x="28" y="7" width="1" height="1" fill="#ffc93c"/><rect x="29" y="7" width="2" height="1" fill="#c98a16"/><rect x="31" y="7" width="1" height="1" fill="#1a1b3a"/><rect x="0" y="8" width="1" height="1" fill="#1a1b3a"/><rect x="1" y="8" width="2" height="1" fill="#ffe78c"/><rect x="3" y="8" width="1" height="1" fill="#ffc93c"/><rect x="4" y="8" width="1" height="1" fill="#1a1b3a"/><rect x="5" y="8" width="4" height="1" fill="#fffcf0"/><rect x="9" y="8" width="4" height="1" fill="#1a1b3a"/><rect x="13" y="8" width="6" height="1" fill="#ffc93c"/><rect x="19" y="8" width="4" height="1" fill="#1a1b3a"/><rect x="23" y="8" width="4" height="1" fill="#fffcf0"/><rect x="27" y="8" width="1" height="1" fill="#1a1b3a"/><rect x="28" y="8" width="1" height="1" fill="#ffc93c"/><rect x="29" y="8" width="2" height="1" fill="#c98a16"/><rect x="31" y="8" width="1" height="1" fill="#1a1b3a"/><rect x="0" y="9" width="1" height="1" fill="#1a1b3a"/><rect x="1" y="9" width="2" height="1" fill="#ffe78c"/><rect x="3" y="9" width="1" height="1" fill="#ffc93c"/><rect x="4" y="9" width="1" height="1" fill="#1a1b3a"/><rect x="5" y="9" width="8" height="1" fill="#fffcf0"/><rect x="13" y="9" width="6" height="1" fill="#1a1b3a"/><rect x="19" y="9" width="8" height="1" fill="#fffcf0"/><rect x="27" y="9" width="1" height="1" fill="#1a1b3a"/><rect x="28" y="9" width="1" height="1" fill="#ffc93c"/><rect x="29" y="9" width="2" height="1" fill="#c98a16"/><rect x="31" y="9" width="1" height="1" fill="#1a1b3a"/><rect x="0" y="10" width="1" height="1" fill="#1a1b3a"/><rect x="1" y="10" width="2" height="1" fill="#ffe78c"/><rect x="3" y="10" width="1" height="1" fill="#ffc93c"/><rect x="4" y="10" width="1" height="1" fill="#1a1b3a"/><rect x="5" y="10" width="10" height="1" fill="#fffcf0"/><rect x="15" y="10" width="2" height="1" fill="#d6ceba"/><rect x="17" y="10" width="10" height="1" fill="#fffcf0"/><rect x="27" y="10" width="1" height="1" fill="#1a1b3a"/><rect x="28" y="10" width="1" height="1" fill="#ffc93c"/><rect x="29" y="10" width="2" height="1" fill="#c98a16"/><rect x="31" y="10" width="1" height="1" fill="#1a1b3a"/><rect x="0" y="11" width="1" height="1" fill="#1a1b3a"/><rect x="1" y="11" width="2" height="1" fill="#ffe78c"/><rect x="3" y="11" width="1" height="1" fill="#ffc93c"/><rect x="4" y="11" width="1" height="1" fill="#1a1b3a"/><rect x="5" y="11" width="10" height="1" fill="#fffcf0"/><rect x="15" y="11" width="2" height="1" fill="#d6ceba"/><rect x="17" y="11" width="3" height="1" fill="#fffcf0"/><rect x="20" y="11" width="2" height="1" fill="#d63031"/><rect x="22" y="11" width="5" height="1" fill="#fffcf0"/><rect x="27" y="11" width="1" height="1" fill="#1a1b3a"/><rect x="28" y="11" width="1" height="1" fill="#ffc93c"/><rect x="29" y="11" width="2" height="1" fill="#c98a16"/><rect x="31" y="11" width="1" height="1" fill="#1a1b3a"/><rect x="0" y="12" width="1" height="1" fill="#1a1b3a"/><rect x="1" y="12" width="2" height="1" fill="#ffe78c"/><rect x="3" y="12" width="1" height="1" fill="#ffc93c"/><rect x="4" y="12" width="1" height="1" fill="#1a1b3a"/><rect x="5" y="12" width="10" height="1" fill="#fffcf0"/><rect x="15" y="12" width="2" height="1" fill="#d6ceba"/><rect x="17" y="12" width="3" height="1" fill="#fffcf0"/><rect x="20" y="12" width="2" height="1" fill="#d63031"/><rect x="22" y="12" width="5" height="1" fill="#fffcf0"/><rect x="27" y="12" width="1" height="1" fill="#1a1b3a"/><rect x="28" y="12" width="1" height="1" fill="#ffc93c"/><rect x="29" y="12" width="2" height="1" fill="#c98a16"/><rect x="31" y="12" width="1" height="1" fill="#1a1b3a"/><rect x="0" y="13" width="1" height="1" fill="#1a1b3a"/><rect x="1" y="13" width="2" height="1" fill="#ffe78c"/><rect x="3" y="13" width="1" height="1" fill="#ffc93c"/><rect x="4" y="13" width="1" height="1" fill="#1a1b3a"/><rect x="5" y="13" width="2" height="1" fill="#fffcf0"/><rect x="7" y="13" width="7" height="1" fill="#d6ceba"/><rect x="14" y="13" width="1" height="1" fill="#fffcf0"/><rect x="15" y="13" width="2" height="1" fill="#d6ceba"/><rect x="17" y="13" width="3" height="1" fill="#fffcf0"/><rect x="20" y="13" width="2" height="1" fill="#d63031"/><rect x="22" y="13" width="5" height="1" fill="#fffcf0"/><rect x="27" y="13" width="1" height="1" fill="#1a1b3a"/><rect x="28" y="13" width="1" height="1" fill="#ffc93c"/><rect x="29" y="13" width="2" height="1" fill="#c98a16"/><rect x="31" y="13" width="1" height="1" fill="#1a1b3a"/><rect x="0" y="14" width="1" height="1" fill="#1a1b3a"/><rect x="1" y="14" width="2" height="1" fill="#ffe78c"/><rect x="3" y="14" width="1" height="1" fill="#ffc93c"/><rect x="4" y="14" width="1" height="1" fill="#1a1b3a"/><rect x="5" y="14" width="10" height="1" fill="#fffcf0"/><rect x="15" y="14" width="2" height="1" fill="#d6ceba"/><rect x="17" y="14" width="1" height="1" fill="#fffcf0"/><rect x="18" y="14" width="6" height="1" fill="#d63031"/><rect x="24" y="14" width="3" height="1" fill="#fffcf0"/><rect x="27" y="14" width="1" height="1" fill="#1a1b3a"/><rect x="28" y="14" width="1" height="1" fill="#ffc93c"/><rect x="29" y="14" width="2" height="1" fill="#c98a16"/><rect x="31" y="14" width="1" height="1" fill="#1a1b3a"/><rect x="0" y="15" width="1" height="1" fill="#1a1b3a"/><rect x="1" y="15" width="2" height="1" fill="#ffe78c"/><rect x="3" y="15" width="1" height="1" fill="#ffc93c"/><rect x="4" y="15" width="1" height="1" fill="#1a1b3a"/><rect x="5" y="15" width="10" height="1" fill="#fffcf0"/><rect x="15" y="15" width="2" height="1" fill="#d6ceba"/><rect x="17" y="15" width="1" height="1" fill="#fffcf0"/><rect x="18" y="15" width="6" height="1" fill="#d63031"/><rect x="24" y="15" width="3" height="1" fill="#fffcf0"/><rect x="27" y="15" width="1" height="1" fill="#1a1b3a"/><rect x="28" y="15" width="1" height="1" fill="#ffc93c"/><rect x="29" y="15" width="2" height="1" fill="#c98a16"/><rect x="31" y="15" width="1" height="1" fill="#1a1b3a"/><rect x="0" y="16" width="1" height="1" fill="#1a1b3a"/><rect x="1" y="16" width="2" height="1" fill="#ffe78c"/><rect x="3" y="16" width="1" height="1" fill="#ffc93c"/><rect x="4" y="16" width="1" height="1" fill="#1a1b3a"/><rect x="5" y="16" width="2" height="1" fill="#fffcf0"/><rect x="7" y="16" width="7" height="1" fill="#d6ceba"/><rect x="14" y="16" width="1" height="1" fill="#fffcf0"/><rect x="15" y="16" width="2" height="1" fill="#d6ceba"/><rect x="17" y="16" width="3" height="1" fill="#fffcf0"/><rect x="20" y="16" width="2" height="1" fill="#d63031"/><rect x="22" y="16" width="5" height="1" fill="#fffcf0"/><rect x="27" y="16" width="1" height="1" fill="#1a1b3a"/><rect x="28" y="16" width="1" height="1" fill="#ffc93c"/><rect x="29" y="16" width="2" height="1" fill="#c98a16"/><rect x="31" y="16" width="1" height="1" fill="#1a1b3a"/><rect x="0" y="17" width="1" height="1" fill="#1a1b3a"/><rect x="1" y="17" width="2" height="1" fill="#ffe78c"/><rect x="3" y="17" width="1" height="1" fill="#ffc93c"/><rect x="4" y="17" width="1" height="1" fill="#1a1b3a"/><rect x="5" y="17" width="10" height="1" fill="#fffcf0"/><rect x="15" y="17" width="2" height="1" fill="#d6ceba"/><rect x="17" y="17" width="3" height="1" fill="#fffcf0"/><rect x="20" y="17" width="2" height="1" fill="#d63031"/><rect x="22" y="17" width="5" height="1" fill="#fffcf0"/><rect x="27" y="17" width="1" height="1" fill="#1a1b3a"/><rect x="28" y="17" width="1" height="1" fill="#ffc93c"/><rect x="29" y="17" width="2" height="1" fill="#c98a16"/><rect x="31" y="17" width="1" height="1" fill="#1a1b3a"/><rect x="0" y="18" width="1" height="1" fill="#1a1b3a"/><rect x="1" y="18" width="2" height="1" fill="#ffe78c"/><rect x="3" y="18" width="1" height="1" fill="#ffc93c"/><rect x="4" y="18" width="1" height="1" fill="#1a1b3a"/><rect x="5" y="18" width="10" height="1" fill="#fffcf0"/><rect x="15" y="18" width="2" height="1" fill="#d6ceba"/><rect x="17" y="18" width="3" height="1" fill="#fffcf0"/><rect x="20" y="18" width="2" height="1" fill="#d63031"/><rect x="22" y="18" width="5" height="1" fill="#fffcf0"/><rect x="27" y="18" width="1" height="1" fill="#1a1b3a"/><rect x="28" y="18" width="1" height="1" fill="#ffc93c"/><rect x="29" y="18" width="2" height="1" fill="#c98a16"/><rect x="31" y="18" width="1" height="1" fill="#1a1b3a"/><rect x="0" y="19" width="1" height="1" fill="#1a1b3a"/><rect x="1" y="19" width="2" height="1" fill="#ffe78c"/><rect x="3" y="19" width="1" height="1" fill="#ffc93c"/><rect x="4" y="19" width="1" height="1" fill="#1a1b3a"/><rect x="5" y="19" width="2" height="1" fill="#fffcf0"/><rect x="7" y="19" width="7" height="1" fill="#d6ceba"/><rect x="14" y="19" width="1" height="1" fill="#fffcf0"/><rect x="15" y="19" width="2" height="1" fill="#d6ceba"/><rect x="17" y="19" width="3" height="1" fill="#fffcf0"/><rect x="20" y="19" width="2" height="1" fill="#d63031"/><rect x="22" y="19" width="5" height="1" fill="#fffcf0"/><rect x="27" y="19" width="1" height="1" fill="#1a1b3a"/><rect x="28" y="19" width="1" height="1" fill="#ffc93c"/><rect x="29" y="19" width="2" height="1" fill="#c98a16"/><rect x="31" y="19" width="1" height="1" fill="#1a1b3a"/><rect x="0" y="20" width="1" height="1" fill="#1a1b3a"/><rect x="1" y="20" width="2" height="1" fill="#ffe78c"/><rect x="3" y="20" width="1" height="1" fill="#ffc93c"/><rect x="4" y="20" width="1" height="1" fill="#1a1b3a"/><rect x="5" y="20" width="10" height="1" fill="#fffcf0"/><rect x="15" y="20" width="2" height="1" fill="#d6ceba"/><rect x="17" y="20" width="3" height="1" fill="#fffcf0"/><rect x="20" y="20" width="2" height="1" fill="#d63031"/><rect x="22" y="20" width="5" height="1" fill="#fffcf0"/><rect x="27" y="20" width="1" height="1" fill="#1a1b3a"/><rect x="28" y="20" width="1" height="1" fill="#ffc93c"/><rect x="29" y="20" width="2" height="1" fill="#c98a16"/><rect x="31" y="20" width="1" height="1" fill="#1a1b3a"/><rect x="0" y="21" width="1" height="1" fill="#1a1b3a"/><rect x="1" y="21" width="2" height="1" fill="#ffe78c"/><rect x="3" y="21" width="1" height="1" fill="#ffc93c"/><rect x="4" y="21" width="1" height="1" fill="#1a1b3a"/><rect x="5" y="21" width="2" height="1" fill="#fffcf0"/><rect x="7" y="21" width="5" height="1" fill="#d6ceba"/><rect x="12" y="21" width="3" height="1" fill="#fffcf0"/><rect x="15" y="21" width="2" height="1" fill="#d6ceba"/><rect x="17" y="21" width="3" height="1" fill="#fffcf0"/><rect x="20" y="21" width="2" height="1" fill="#d63031"/><rect x="22" y="21" width="5" height="1" fill="#fffcf0"/><rect x="27" y="21" width="1" height="1" fill="#1a1b3a"/><rect x="28" y="21" width="1" height="1" fill="#ffc93c"/><rect x="29" y="21" width="2" height="1" fill="#c98a16"/><rect x="31" y="21" width="1" height="1" fill="#1a1b3a"/><rect x="0" y="22" width="1" height="1" fill="#1a1b3a"/><rect x="1" y="22" width="2" height="1" fill="#ffe78c"/><rect x="3" y="22" width="1" height="1" fill="#ffc93c"/><rect x="4" y="22" width="1" height="1" fill="#1a1b3a"/><rect x="5" y="22" width="10" height="1" fill="#fffcf0"/><rect x="15" y="22" width="2" height="1" fill="#d6ceba"/><rect x="17" y="22" width="10" height="1" fill="#fffcf0"/><rect x="27" y="22" width="1" height="1" fill="#1a1b3a"/><rect x="28" y="22" width="1" height="1" fill="#ffc93c"/><rect x="29" y="22" width="2" height="1" fill="#c98a16"/><rect x="31" y="22" width="1" height="1" fill="#1a1b3a"/><rect x="0" y="23" width="1" height="1" fill="#1a1b3a"/><rect x="1" y="23" width="2" height="1" fill="#ffe78c"/><rect x="3" y="23" width="1" height="1" fill="#ffc93c"/><rect x="4" y="23" width="1" height="1" fill="#1a1b3a"/><rect x="5" y="23" width="10" height="1" fill="#fffcf0"/><rect x="15" y="23" width="2" height="1" fill="#d6ceba"/><rect x="17" y="23" width="10" height="1" fill="#fffcf0"/><rect x="27" y="23" width="1" height="1" fill="#1a1b3a"/><rect x="28" y="23" width="1" height="1" fill="#ffc93c"/><rect x="29" y="23" width="2" height="1" fill="#c98a16"/><rect x="31" y="23" width="1" height="1" fill="#1a1b3a"/><rect x="0" y="24" width="1" height="1" fill="#1a1b3a"/><rect x="1" y="24" width="2" height="1" fill="#ffe78c"/><rect x="3" y="24" width="1" height="1" fill="#ffc93c"/><rect x="4" y="24" width="5" height="1" fill="#1a1b3a"/><rect x="9" y="24" width="6" height="1" fill="#fffcf0"/><rect x="15" y="24" width="2" height="1" fill="#d6ceba"/><rect x="17" y="24" width="6" height="1" fill="#fffcf0"/><rect x="23" y="24" width="5" height="1" fill="#1a1b3a"/><rect x="28" y="24" width="1" height="1" fill="#ffc93c"/><rect x="29" y="24" width="2" height="1" fill="#c98a16"/><rect x="31" y="24" width="1" height="1" fill="#1a1b3a"/><rect x="0" y="25" width="1" height="1" fill="#1a1b3a"/><rect x="1" y="25" width="2" height="1" fill="#ffe78c"/><rect x="3" y="25" width="6" height="1" fill="#ffc93c"/><rect x="9" y="25" width="4" height="1" fill="#1a1b3a"/><rect x="13" y="25" width="2" height="1" fill="#fffcf0"/><rect x="15" y="25" width="2" height="1" fill="#d6ceba"/><rect x="17" y="25" width="2" height="1" fill="#fffcf0"/><rect x="19" y="25" width="4" height="1" fill="#1a1b3a"/><rect x="23" y="25" width="6" height="1" fill="#ffc93c"/><rect x="29" y="25" width="2" height="1" fill="#c98a16"/><rect x="31" y="25" width="1" height="1" fill="#1a1b3a"/><rect x="0" y="26" width="1" height="1" fill="#1a1b3a"/><rect x="1" y="26" width="2" height="1" fill="#ffe78c"/><rect x="3" y="26" width="10" height="1" fill="#ffc93c"/><rect x="13" y="26" width="3" height="1" fill="#1a1b3a"/><rect x="16" y="26" width="1" height="1" fill="#d63031"/><rect x="17" y="26" width="2" height="1" fill="#1a1b3a"/><rect x="19" y="26" width="10" height="1" fill="#ffc93c"/><rect x="29" y="26" width="2" height="1" fill="#c98a16"/><rect x="31" y="26" width="1" height="1" fill="#1a1b3a"/><rect x="0" y="27" width="1" height="1" fill="#1a1b3a"/><rect x="1" y="27" width="2" height="1" fill="#ffe78c"/><rect x="3" y="27" width="1" height="1" fill="#ffc93c"/><rect x="4" y="27" width="1" height="1" fill="#c98a16"/><rect x="5" y="27" width="11" height="1" fill="#ffc93c"/><rect x="16" y="27" width="1" height="1" fill="#d63031"/><rect x="17" y="27" width="10" height="1" fill="#ffc93c"/><rect x="27" y="27" width="1" height="1" fill="#c98a16"/><rect x="28" y="27" width="1" height="1" fill="#ffc93c"/><rect x="29" y="27" width="2" height="1" fill="#c98a16"/><rect x="31" y="27" width="1" height="1" fill="#1a1b3a"/><rect x="0" y="28" width="1" height="1" fill="#1a1b3a"/><rect x="1" y="28" width="2" height="1" fill="#ffe78c"/><rect x="3" y="28" width="13" height="1" fill="#ffc93c"/><rect x="16" y="28" width="1" height="1" fill="#d63031"/><rect x="17" y="28" width="12" height="1" fill="#ffc93c"/><rect x="29" y="28" width="2" height="1" fill="#c98a16"/><rect x="31" y="28" width="1" height="1" fill="#1a1b3a"/><rect x="0" y="29" width="1" height="1" fill="#1a1b3a"/><rect x="1" y="29" width="30" height="1" fill="#c98a16"/><rect x="31" y="29" width="1" height="1" fill="#1a1b3a"/><rect x="0" y="30" width="1" height="1" fill="#1a1b3a"/><rect x="1" y="30" width="30" height="1" fill="#c98a16"/><rect x="31" y="30" width="1" height="1" fill="#1a1b3a"/><rect x="0" y="31" width="32" height="1" fill="#1a1b3a"/></svg>